<?xml version="1.0" encoding="utf-8"?>
<svg viewBox="0 0 500 500" xmlns="http://www.w3.org/2000/svg">
  <path style="fill: none;" d="M 474.206 51.512 C 494.033 51.512 506.425 30.049 496.511 12.878 C 486.598 -4.293 461.814 -4.293 451.9 12.878 C 442.909 28.452 452.24 48.212 469.98 51.163" transform="matrix(1, 0, 0, 1, 2.842170943040401e-14, 0)"/>
  <path d="M 474.24 52.011 C 474.24 52.011 475.463 51.99 476.076 51.949 C 476.69 51.907 477.304 51.844 477.901 51.762 C 479.095 51.598 480.274 51.352 481.398 51.038 C 483.649 50.408 485.782 49.475 487.707 48.319 C 491.558 46.005 494.746 42.692 496.944 38.884 C 501.337 31.276 501.934 21.355 496.944 12.628 C 491.882 3.943 482.991 -0.5 474.206 -0.5 C 465.421 -0.5 456.53 3.943 451.467 12.628 C 446.938 20.542 446.993 29.617 450.464 36.968 C 453.935 44.318 460.908 50.126 469.898 51.656 L 470.062 50.67 C 461.312 49.249 454.75 43.702 451.368 36.541 C 447.986 29.38 447.871 20.788 452.333 13.128 C 457.184 4.642 465.642 0.5 474.206 0.5 C 482.769 0.5 491.227 4.642 496.078 13.128 C 501.002 21.573 500.36 30.968 496.078 38.384 C 493.94 42.088 490.932 45.215 487.192 47.462 C 485.322 48.585 483.312 49.464 481.129 50.075 C 480.036 50.38 478.925 50.612 477.765 50.771 C 477.185 50.851 476.605 50.911 476.009 50.951 C 475.711 50.971 475.415 50.986 475.113 50.997 C 474.811 51.007 474.189 51.012 474.189 51.012 C 474.193 51.012 474.232 52.011 474.24 52.011 Z" style="" transform="matrix(1, 0, 0, 1, 2.842170943040401e-14, 0)"/>
</svg>